<svg xmlns="http://www.w3.org/2000/svg" width="160" height="160" fill="none" viewBox="0 0 160 160">
  <path fill="#000" d="M80 8.353c6.96 0 13.04 3.794 16.267 9.414l30.593 52.88 29.667 51.273c.313.493 1.4 2.393 1.8 3.293a18.725 18.725 0 0 1-3.052 20.158 18.724 18.724 0 0 1-19.655 5.416l-52.673-17.374a9.333 9.333 0 0 0-2.947-.466 9.34 9.34 0 0 0-2.947.466l-52.666 17.374-1.08.306a18.642 18.642 0 0 1-4.56.554 18.741 18.741 0 0 1-15.332-7.964A18.732 18.732 0 0 1 1.12 126.56c.2-.607.493-1.173.74-1.76.48-1 1.073-1.92 1.613-2.88l29.66-51.273 30.587-52.88A18.734 18.734 0 0 1 80 8.353Z"/>
</svg>
